<svg width="1440" height="887" viewBox="0 0 1440 887" fill="none" xmlns="http://www.w3.org/2000/svg">
<g clip-path="url(#clip0_2722_2326)">
<rect width="1440" height="887" fill="#FAFFF9"/>
<g filter="url(#filter0_f_2722_2326)">
<circle cx="912.105" cy="1014.51" r="399.743" transform="rotate(21.9491 912.105 1014.51)" fill="#B3DA41" fill-opacity="0.7"/>
</g>
<path d="M716.355 8L720.074 -2.18555H721.469L725.229 8H723.943L721.742 1.86133C721.624 1.52409 721.473 1.07747 721.291 0.521484C721.113 -0.0345052 720.899 -0.736328 720.648 -1.58398H720.881C720.639 -0.736328 720.427 -0.0345052 720.245 0.521484C720.067 1.07747 719.919 1.52409 719.801 1.86133L717.654 8H716.355ZM718.188 5.11523V4.02148H723.396V5.11523H718.188ZM730.15 8.16406C729.663 8.16406 729.271 8.08203 728.975 7.91797C728.678 7.74935 728.451 7.56022 728.291 7.35059C728.132 7.13639 728.008 6.96094 727.922 6.82422H727.785V8H726.664V-2.18555H727.826V1.57422H727.922C728.008 1.44206 728.129 1.27344 728.284 1.06836C728.439 0.858724 728.662 0.671875 728.954 0.507812C729.246 0.34375 729.64 0.261719 730.137 0.261719C730.779 0.261719 731.344 0.423503 731.832 0.74707C732.32 1.06608 732.7 1.52181 732.974 2.11426C733.252 2.70215 733.391 3.39714 733.391 4.19922C733.391 5.00586 733.254 5.70768 732.98 6.30469C732.707 6.89714 732.326 7.35514 731.839 7.67871C731.351 8.00228 730.788 8.16406 730.15 8.16406ZM730 7.11133C730.488 7.11133 730.896 6.98145 731.224 6.72168C731.552 6.45736 731.798 6.10417 731.962 5.66211C732.131 5.22005 732.215 4.72786 732.215 4.18555C732.215 3.64779 732.133 3.16243 731.969 2.72949C731.805 2.29655 731.559 1.95247 731.23 1.69727C730.907 1.44206 730.497 1.31445 730 1.31445C729.521 1.31445 729.12 1.43522 728.797 1.67676C728.473 1.91374 728.227 2.2487 728.059 2.68164C727.895 3.11003 727.812 3.61133 727.812 4.18555C727.812 4.75977 727.897 5.2679 728.065 5.70996C728.234 6.14746 728.48 6.49154 728.804 6.74219C729.132 6.98828 729.531 7.11133 730 7.11133ZM738.271 8.16406C737.583 8.16406 736.979 8 736.46 7.67188C735.94 7.34375 735.535 6.88346 735.243 6.29102C734.956 5.69857 734.812 5.01042 734.812 4.22656C734.812 3.42904 734.956 2.73405 735.243 2.1416C735.535 1.5446 735.94 1.08203 736.46 0.753906C736.979 0.425781 737.583 0.261719 738.271 0.261719C738.964 0.261719 739.57 0.425781 740.09 0.753906C740.609 1.08203 741.015 1.5446 741.307 2.1416C741.598 2.73405 741.744 3.42904 741.744 4.22656C741.744 5.01042 741.598 5.69857 741.307 6.29102C741.015 6.88346 740.609 7.34375 740.09 7.67188C739.57 8 738.964 8.16406 738.271 8.16406ZM738.271 7.11133C738.8 7.11133 739.233 6.97689 739.57 6.70801C739.908 6.43913 740.158 6.08594 740.322 5.64844C740.486 5.20638 740.568 4.73242 740.568 4.22656C740.568 3.71159 740.486 3.23307 740.322 2.79102C740.158 2.34896 739.908 1.99349 739.57 1.72461C739.233 1.45117 738.8 1.31445 738.271 1.31445C737.747 1.31445 737.317 1.45117 736.979 1.72461C736.647 1.99349 736.398 2.34896 736.234 2.79102C736.07 3.23307 735.988 3.71159 735.988 4.22656C735.988 4.73242 736.07 5.20638 736.234 5.64844C736.398 6.08594 736.647 6.43913 736.979 6.70801C737.317 6.97689 737.747 7.11133 738.271 7.11133ZM746.119 8.0957C745.609 8.0957 745.158 7.99089 744.766 7.78125C744.378 7.57161 744.075 7.2526 743.856 6.82422C743.642 6.39583 743.535 5.85807 743.535 5.21094V0.357422H744.697V5.12891C744.697 5.72591 744.854 6.19531 745.169 6.53711C745.483 6.87435 745.912 7.04297 746.454 7.04297C746.828 7.04297 747.16 6.96094 747.452 6.79688C747.748 6.63281 747.983 6.39583 748.156 6.08594C748.329 5.77148 748.416 5.39323 748.416 4.95117V0.357422H749.578V8H748.457V6.1543H748.628C748.396 6.85612 748.063 7.35514 747.63 7.65137C747.201 7.94759 746.698 8.0957 746.119 8.0957ZM754.746 0.357422V1.35547H750.795V0.357422H754.746ZM751.943 -1.46094H753.105V6.03809C753.105 6.389 753.176 6.64648 753.317 6.81055C753.459 6.97005 753.693 7.0498 754.021 7.0498C754.099 7.0498 754.197 7.04069 754.315 7.02246C754.438 7.00423 754.55 6.986 754.65 6.96777L754.896 7.95898C754.787 8 754.653 8.0319 754.493 8.05469C754.338 8.08203 754.181 8.0957 754.021 8.0957C753.37 8.0957 752.859 7.92253 752.49 7.57617C752.126 7.22982 751.943 6.74674 751.943 6.12695V-1.46094ZM764.371 8.16406C763.574 8.16406 762.876 8.00684 762.279 7.69238C761.687 7.37793 761.227 6.94954 760.898 6.40723C760.57 5.86035 760.406 5.23828 760.406 4.54102V-2.18555H761.637V4.44531C761.637 4.94206 761.746 5.38411 761.965 5.77148C762.184 6.15885 762.498 6.46419 762.908 6.6875C763.318 6.90625 763.806 7.01562 764.371 7.01562C764.936 7.01562 765.422 6.90625 765.827 6.6875C766.233 6.46419 766.545 6.15885 766.764 5.77148C766.982 5.38411 767.092 4.94206 767.092 4.44531V-2.18555H768.322V4.54102C768.322 5.23828 768.158 5.86035 767.83 6.40723C767.507 6.94954 767.049 7.37793 766.456 7.69238C765.864 8.00684 765.169 8.16406 764.371 8.16406ZM773.189 8.16406C772.67 8.16406 772.21 8.08887 771.809 7.93848C771.408 7.78353 771.077 7.55794 770.817 7.26172C770.558 6.96549 770.382 6.60091 770.291 6.16797L771.398 5.89453C771.503 6.30469 771.704 6.6123 772 6.81738C772.301 7.02246 772.693 7.125 773.176 7.125C773.718 7.125 774.151 7.00879 774.475 6.77637C774.803 6.53939 774.967 6.25911 774.967 5.93555C774.967 5.66667 774.873 5.44336 774.687 5.26562C774.5 5.08333 774.215 4.94661 773.832 4.85547L772.561 4.55469C771.859 4.38607 771.344 4.12858 771.016 3.78223C770.688 3.43587 770.523 3.00065 770.523 2.47656C770.523 2.04362 770.644 1.66081 770.886 1.32812C771.132 0.995443 771.467 0.735677 771.891 0.548828C772.314 0.357422 772.793 0.261719 773.326 0.261719C773.832 0.261719 774.263 0.339193 774.618 0.494141C774.978 0.644531 775.274 0.856445 775.507 1.12988C775.739 1.39876 775.915 1.71549 776.033 2.08008L774.98 2.36719C774.88 2.10742 774.707 1.86133 774.461 1.62891C774.219 1.39193 773.841 1.27344 773.326 1.27344C772.861 1.27344 772.474 1.38281 772.164 1.60156C771.854 1.81576 771.699 2.08464 771.699 2.4082C771.699 2.69987 771.804 2.93229 772.014 3.10547C772.228 3.27865 772.561 3.41992 773.012 3.5293L774.146 3.80273C774.826 3.9668 775.331 4.21973 775.664 4.56152C776.001 4.90332 776.17 5.33854 776.17 5.86719C776.17 6.30469 776.045 6.69661 775.794 7.04297C775.543 7.38932 775.195 7.66276 774.748 7.86328C774.301 8.0638 773.782 8.16406 773.189 8.16406Z" fill="white"/>
</g>
<defs>
<filter id="filter0_f_2722_2326" x="-107.744" y="-5.33954" width="2039.7" height="2039.7" filterUnits="userSpaceOnUse" color-interpolation-filters="sRGB">
<feFlood flood-opacity="0" result="BackgroundImageFix"/>
<feBlend mode="normal" in="SourceGraphic" in2="BackgroundImageFix" result="shape"/>
<feGaussianBlur stdDeviation="310" result="effect1_foregroundBlur_2722_2326"/>
</filter>
<clipPath id="clip0_2722_2326">
<rect width="1440" height="887" fill="white"/>
</clipPath>
</defs>
</svg>
