<svg width="83" height="49" viewBox="0 0 83 49" fill="none" xmlns="http://www.w3.org/2000/svg">
<path opacity="0.2" d="M60.5147 20.8604C61.5532 12.3175 69.4458 8.38779 82.7387 6.85008V0.699219C57.6069 1.5535 44.1063 12.3175 44.1063 29.0615C44.1063 40.5089 51.7912 48.5392 64.0456 48.5392C74.223 48.5392 82.3233 43.0718 82.3233 34.3581C82.3233 26.4986 76.5077 22.2272 68.615 20.8604H60.5147ZM16.482 20.8604C17.7282 12.3175 25.6208 8.38779 38.9137 6.85008V0.699219C13.7818 1.5535 0.28125 12.3175 0.28125 29.0615C0.28125 40.5089 7.96621 48.5392 20.2206 48.5392C30.398 48.5392 38.4983 43.0718 38.4983 34.3581C38.4983 26.4986 32.6827 22.2272 24.79 20.8604H16.482Z" fill="#C1C7D1"/>
</svg>
