<svg width="1694" height="606" viewBox="0 0 1694 606" fill="none" xmlns="http://www.w3.org/2000/svg">
<mask id="mask0_2722_1694" style="mask-type:luminance" maskUnits="userSpaceOnUse" x="-95" y="0" width="1789" height="607">
<path d="M1693.06 0H-94.6055V606.229H1693.06V0Z" fill="white"/>
</mask>
<g mask="url(#mask0_2722_1694)">
<path d="M1792.1 229.034C1759.91 229.034 1730.34 238.933 1707.1 255.466C1696.53 248.778 1684.34 243.944 1671.17 241.461C1673.85 235.148 1675.3 228.316 1675.3 221.187C1675.3 193.242 1652.91 169.91 1623.08 164.337C1617.05 97.0137 1563.92 44.3691 1499.27 44.3691C1430.57 44.3691 1374.87 103.801 1374.87 177.106C1374.87 201.608 1381.1 224.553 1391.95 244.253C1353.53 262.132 1326.05 295.816 1320.65 335.471C1315.54 334.356 1310.21 333.749 1304.72 333.749C1268.28 333.749 1238.74 359.773 1238.74 391.879C1238.74 423.984 1268.27 450.008 1304.72 450.008C1324.68 450.008 1342.56 442.184 1354.66 429.845C1379.43 453.982 1415.26 469.135 1455.11 469.135C1515.6 469.135 1566.82 434.182 1584.21 385.963C1601.53 400.587 1625.04 409.57 1650.93 409.57C1658.96 409.57 1666.74 408.698 1674.19 407.076C1697.45 443.243 1741.53 467.656 1792.09 467.656C1866.89 467.656 1927.52 414.239 1927.52 348.339C1927.52 282.44 1866.89 229.023 1792.09 229.023L1792.1 229.034Z" fill="#DAD2EE"/>
<path d="M1792.1 229.034C1759.91 229.034 1730.34 238.933 1707.1 255.466C1696.53 248.778 1684.34 243.944 1671.17 241.461C1673.85 235.148 1675.3 228.316 1675.3 221.187C1675.3 193.242 1652.91 169.91 1623.08 164.337C1617.05 97.0137 1563.92 44.3691 1499.27 44.3691C1430.57 44.3691 1374.87 103.801 1374.87 177.106C1374.87 201.608 1381.1 224.553 1391.95 244.253C1353.53 262.132 1326.05 295.816 1320.65 335.471C1315.54 334.356 1310.21 333.749 1304.72 333.749C1268.28 333.749 1238.74 359.773 1238.74 391.879C1238.74 423.984 1268.27 450.008 1304.72 450.008C1324.68 450.008 1342.56 442.183 1354.66 429.845C1379.43 453.982 1415.26 469.135 1455.11 469.135C1515.6 469.135 1566.82 434.182 1584.21 385.963C1601.53 400.587 1625.04 409.57 1650.93 409.57C1658.96 409.57 1666.74 408.698 1674.19 407.076C1697.45 443.243 1741.53 467.656 1792.09 467.656C1866.89 467.656 1927.52 414.239 1927.52 348.339C1927.52 282.44 1866.89 229.023 1792.09 229.023L1792.1 229.034Z" stroke="#A699B8" stroke-width="1.87622"/>
<path d="M377.277 295.086C365.975 295.086 355.248 296.907 345.557 300.163C345.293 293.751 344.365 287.361 342.732 281.048C334.101 247.706 307.426 222.311 270.983 207.908C262.882 183.396 242.586 163.453 216.264 153.531C218.659 143.918 219.928 133.831 219.928 123.412C219.928 58.7155 170.782 6.26953 110.158 6.26953C55.1734 6.26953 9.6254 49.4226 1.6349 105.72C-34.7417 111.029 -63.0506 152.361 -63.0506 202.555C-63.0506 213.923 -61.5938 224.838 -58.9229 234.981C-65.876 234.032 -72.9946 233.524 -80.2236 233.524C-160.515 233.524 -225.598 294.159 -225.598 368.954C-225.598 443.749 -160.515 504.384 -80.2346 504.384C-28.175 504.384 17.4834 478.89 43.1546 440.571C83.394 461.077 139.041 466.54 196.122 451.762C244.595 439.213 285.077 414.403 311.642 384.273C325.405 400.53 349.641 411.335 377.266 411.335C420.154 411.335 454.919 385.311 454.919 353.205C454.919 321.1 420.154 295.075 377.266 295.075L377.277 295.086Z" fill="#DAD2EE"/>
<path d="M377.277 295.086C365.975 295.086 355.248 296.907 345.557 300.163C345.293 293.751 344.365 287.361 342.732 281.048C334.101 247.706 307.426 222.311 270.983 207.908C262.882 183.396 242.586 163.453 216.264 153.531C218.659 143.918 219.928 133.831 219.928 123.412C219.928 58.7155 170.782 6.26953 110.158 6.26953C55.1734 6.26953 9.6254 49.4226 1.6349 105.72C-34.7417 111.029 -63.0506 152.361 -63.0506 202.555C-63.0506 213.923 -61.5938 224.838 -58.9229 234.981C-65.876 234.032 -72.9946 233.524 -80.2236 233.524C-160.515 233.524 -225.598 294.159 -225.598 368.954C-225.598 443.749 -160.515 504.384 -80.2346 504.384C-28.175 504.384 17.4834 478.89 43.1546 440.571C83.394 461.077 139.041 466.54 196.122 451.762C244.595 439.213 285.077 414.403 311.642 384.273C325.405 400.53 349.641 411.335 377.266 411.335C420.154 411.335 454.919 385.311 454.919 353.205C454.919 321.1 420.154 295.075 377.266 295.075L377.277 295.086Z" stroke="#A699B8" stroke-width="1.87622"/>
<path d="M910.442 535.784C910.442 560.539 888.491 584.268 848.262 606.23H-99.5391V331.375C313.451 332.181 667.725 382.165 824.434 453.495C879.75 478.681 910.442 506.515 910.442 535.784Z" fill="#D8BBC8" stroke="#BF7795" stroke-width="1.87622" stroke-linecap="round" stroke-linejoin="round"/>
<path d="M1692.93 362.695V606.229H631.097C624.586 596.859 621.23 587.29 621.23 577.589C621.23 531.511 696.842 488.755 825.97 453.493C996.1 407.04 1387.57 373.599 1692.93 362.695Z" fill="#D8BBC8" stroke="#BF7795" stroke-width="1.87622" stroke-linecap="round" stroke-linejoin="round"/>
<path d="M1695.28 544.202V606.228H-99.8125V575.336C124.231 528.298 454.688 498.555 823.245 498.555C1101.97 498.555 1489.68 515.562 1695.28 544.202Z" fill="#A979BF" stroke="#724F80" stroke-width="1.87622" stroke-linecap="round" stroke-linejoin="round"/>
</g>
</svg>
