<svg width="200" height="200" viewBox="0 0 200 200" fill="none" xmlns="http://www.w3.org/2000/svg">
<rect x="0.456722" y="0.456722" width="199.087" height="199.087" rx="39.5433" fill="#141317"/>
<rect x="0.456722" y="0.456722" width="199.087" height="199.087" rx="39.5433" stroke="#D4D4D4" stroke-width="0.913443"/>
<path d="M47.9062 108.488C55.37 117.218 66.3628 122.736 78.6221 122.736C89.7009 122.736 99.7436 118.227 107.084 110.917C116.445 118.814 126.111 127.334 132.249 132.672C120.574 144.015 104.643 151 87.0801 151H47.9062V108.488ZM151.906 86.1738C151.906 103.488 145.118 119.216 134.059 130.844C131.19 127.955 120.829 117.47 110.772 106.712C116.137 99.6902 119.334 90.8664 119.334 81.2812C119.334 68.7958 113.912 57.6001 105.337 50H151.906V86.1738Z" fill="url(#paint0_linear_132_1253)"/>
<path d="M78.8076 50C95.6708 50.0002 109.341 64.005 109.341 81.2803C109.341 88.0675 107.23 94.3491 103.645 99.4756C95.6681 90.365 89.2588 82.3896 89.0723 80.0859C88.5794 73.9759 93.2295 64.1855 93.2295 64.1855C93.2295 64.1855 83.1481 69.5536 77.1885 70.0654C71.2429 70.5758 62.7482 66.8244 62.708 66.8066C62.708 66.8066 68.3958 75.7499 68.8984 81.8184C69.3999 87.8742 65.2994 97.844 65.2822 97.8857C65.3364 97.8505 74.1974 92.093 80.5547 91.6436C82.6463 91.4958 90.0569 97.2442 98.9277 104.805C93.5546 109.632 86.5156 112.559 78.8076 112.56C61.9444 112.56 48.2737 98.5555 48.2734 81.2803C48.2734 64.0049 61.9443 50 78.8076 50Z" fill="url(#paint1_linear_132_1253)"/>
<defs>
<linearGradient id="paint0_linear_132_1253" x1="58.4659" y1="66.4624" x2="134.695" y2="117.311" gradientUnits="userSpaceOnUse">
<stop offset="0.1" stop-color="#ACFF5F"/>
<stop offset="1" stop-color="#CDFF00"/>
</linearGradient>
<linearGradient id="paint1_linear_132_1253" x1="54.4739" y1="60.1968" x2="100.676" y2="89.4131" gradientUnits="userSpaceOnUse">
<stop offset="0.1" stop-color="#ACFF5F"/>
<stop offset="1" stop-color="#CDFF00"/>
</linearGradient>
</defs>
</svg>
